<svg xmlns="http://www.w3.org/2000/svg" xmlns:xlink="http://www.w3.org/1999/xlink" width="40" height="24" viewBox="0 0 40 24">
  <defs>
    <clipPath id="clip-path">
      <rect id="사각형_187" data-name="사각형 187" width="40" height="24" transform="translate(1806 18119)" fill="#942929"/>
    </clipPath>
  </defs>
  <g id="마스크_그룹_56" data-name="마스크 그룹 56" transform="translate(-1806 -18119)" clip-path="url(#clip-path)">
    <path id="패스_427" data-name="패스 427" d="M22.048,19.651a2.708,2.708,0,0,1-4.8,0,.569.569,0,0,1,.556-.808h3.684a.569.569,0,0,1,.556.808m6.339-3.088-1.134-1.272a4.06,4.06,0,0,1-1.03-2.7V8.368a6.635,6.635,0,0,0-4.688-6.343.459.459,0,0,1-.322-.44,1.563,1.563,0,1,0-3.126-.023v.023a.459.459,0,0,1-.322.44,6.635,6.635,0,0,0-4.688,6.343v4.221a4.06,4.06,0,0,1-1.03,2.7l-1.134,1.272a.689.689,0,0,0,.514,1.147H27.873a.689.689,0,0,0,.514-1.147m9.739-8.472a12.093,12.093,0,0,0-3.164-3.913.673.673,0,0,0-.855,1.041A10.127,10.127,0,0,1,37.954,13a10.137,10.137,0,0,1-3.975,7.884.673.673,0,1,0,.84,1.053,12.136,12.136,0,0,0,3.267-3.949,10.843,10.843,0,0,0,.041-9.9m-5.179-.436a.673.673,0,0,0-.924.98A6.037,6.037,0,0,1,34.042,13a6.066,6.066,0,0,1-2.136,4.477.673.673,0,1,0,.9,1A7.394,7.394,0,0,0,35.389,13a7.367,7.367,0,0,0-2.441-5.349M5.322,20.882A10.137,10.137,0,0,1,1.347,13,10.127,10.127,0,0,1,5.193,5.22a.673.673,0,0,0-.855-1.041A12.093,12.093,0,0,0,1.174,8.091a10.843,10.843,0,0,0,.041,9.9,12.136,12.136,0,0,0,3.267,3.949.673.673,0,1,0,.84-1.053m2.072-3.4A6.066,6.066,0,0,1,5.259,13,6.037,6.037,0,0,1,7.278,8.635a.673.673,0,1,0-.924-.98A7.367,7.367,0,0,0,3.912,13,7.394,7.394,0,0,0,6.49,18.48a.673.673,0,1,0,.9-1" transform="translate(1806.35 18120.918)" fill="#ccc"/>
  </g>
</svg>
