<svg xmlns="http://www.w3.org/2000/svg" width="25.659" height="25.659" viewBox="0 0 25.659 25.659"><path d="M25.627,20.009a3.391,3.391,0,0,0-1.742-2.222,25.377,25.377,0,0,0-3.261-1.862,2.6,2.6,0,0,0-3.156.644L16.326,17.7c-.6.516-1.643.186-2.3-.432L11.2,14.609l-2.8-2.974c-.617-.658-.948-1.7-.454-2.279l1.15-1.163a2.6,2.6,0,0,0,.645-3.158A25.322,25.322,0,0,0,7.874,1.778,3.391,3.391,0,0,0,5.65.032a4.464,4.464,0,0,0-3.276,1.3,8.1,8.1,0,0,0-2.1,3C-1.394,9.377,4.988,15.712,7.389,18.1l.172.173c2.116,2.13,7.337,7.39,12.01,7.39a5.564,5.564,0,0,0,1.755-.275,8.1,8.1,0,0,0,3.014-2.117,4.445,4.445,0,0,0,1.287-3.259" transform="translate(0 0)" fill="#ccc"/></svg>