<svg xmlns="http://www.w3.org/2000/svg" xmlns:xlink="http://www.w3.org/1999/xlink" width="40" height="24" viewBox="0 0 40 24">
  <defs>
    <clipPath id="clip-path">
      <rect id="사각형_188" data-name="사각형 188" width="40" height="24" transform="translate(1725 18119)" fill="#942929"/>
    </clipPath>
  </defs>
  <g id="마스크_그룹_57" data-name="마스크 그룹 57" transform="translate(-1725 -18119)" clip-path="url(#clip-path)">
    <path id="패스_426" data-name="패스 426" d="M230.245,142.333H213.563a2.941,2.941,0,0,0-2.933,2.949v15.851c0,.334.48.488.769.254a4.425,4.425,0,0,1,3.805-2.521h15.041a2.94,2.94,0,0,0,2.933-2.948V145.282A2.941,2.941,0,0,0,230.245,142.333ZM221.7,153.246h-5.81a.665.665,0,0,1,0-1.33h5.81a.665.665,0,0,1,0,1.33Zm6.213-3.875H215.893a.665.665,0,0,1,0-1.33h12.023a.665.665,0,0,1,0,1.33Z" transform="translate(1523.37 17979.5)" fill="#ccc"/>
  </g>
</svg>
