<svg xmlns="http://www.w3.org/2000/svg" xmlns:xlink="http://www.w3.org/1999/xlink" width="40" height="24" viewBox="0 0 40 24">
  <defs>
    <clipPath id="clip-path">
      <rect id="사각형_185" data-name="사각형 185" width="40" height="24" transform="translate(2045 18119)" fill="#942929"/>
    </clipPath>
  </defs>
  <g id="마스크_그룹_53" data-name="마스크 그룹 53" transform="translate(-2045 -18119)" clip-path="url(#clip-path)">
    <g id="그룹_375" data-name="그룹 375" transform="translate(326 17792)">
      <path id="패스_434" data-name="패스 434" d="M9.086,242.767a1.26,1.26,0,0,1-.113.144q-.992,1-1.988,1.989a2.91,2.91,0,0,1-1.265.779,2.062,2.062,0,0,1-2.677-1.648,2.416,2.416,0,0,1,.611-1.987,3.088,3.088,0,0,1,.211-.23c1.256-1.257,2.518-2.508,3.767-3.772a2.421,2.421,0,0,1,3.46-.18,1.189,1.189,0,0,0,1.686-.108,1.233,1.233,0,0,0-.042-1.727,4.414,4.414,0,0,0-3.284-1.3,5.049,5.049,0,0,0-3.574,1.558q-1.887,1.882-3.77,3.769a5.253,5.253,0,0,0-1.452,2.562,3.963,3.963,0,0,0,.183,2.728A4.522,4.522,0,0,0,5.791,248.2a5.189,5.189,0,0,0,2.927-1.518q1.679-1.676,3.356-3.355a1.019,1.019,0,0,0,.074-.088,4.127,4.127,0,0,1-3.061-.472" transform="translate(1728.849 100.605)" fill="#ccc"/>
      <path id="패스_436" data-name="패스 436" d="M284.466,3.4A4.715,4.715,0,0,0,276.759,1.9c-1.257,1.1-2.373,2.358-3.557,3.54a.176.176,0,0,0-.026.045,4.157,4.157,0,0,1,3.038.483c.033-.039.075-.1.125-.148.657-.659,1.306-1.326,1.979-1.969a3.706,3.706,0,0,1,.842-.622,2.084,2.084,0,0,1,3.109,1.5,2.381,2.381,0,0,1-.737,2.094q-1.965,2-3.962,3.963a2.37,2.37,0,0,1-3.325.112,1.2,1.2,0,0,0-1.7.072,1.23,1.23,0,0,0,.035,1.739,4.681,4.681,0,0,0,.762.605,4.779,4.779,0,0,0,5.737-.559,47.365,47.365,0,0,0,4.295-4.263c2.107-2.532,1.47-4.2,1.1-5.1" transform="translate(1464.341 328.637)" fill="#ccc"/>
    </g>
  </g>
</svg>
