<svg xmlns="http://www.w3.org/2000/svg" xmlns:xlink="http://www.w3.org/1999/xlink" width="40" height="24" viewBox="0 0 40 24">
  <defs>
    <clipPath id="clip-path">
      <rect id="사각형_184" data-name="사각형 184" width="40" height="24" transform="translate(1965 18119)" fill="#942929"/>
    </clipPath>
  </defs>
  <g id="마스크_그룹_54" data-name="마스크 그룹 54" transform="translate(-1965 -18119)" clip-path="url(#clip-path)">
    <path id="패스_429" data-name="패스 429" d="M22.768,7.233a11.887,11.887,0,1,0,.931,4.612,11.81,11.81,0,0,0-.931-4.612M10.9,14.253l-2.3,2.3L9.852,17.8c.19.19.126.345-.143.345H6.061a.49.49,0,0,1-.488-.488V14.011c0-.268.155-.333.345-.143l1.251,1.251,2.3-2.3a.2.2,0,0,1,.276,0L10.9,13.977a.2.2,0,0,1,0,.276m0-4.511L9.743,10.9a.2.2,0,0,1-.276,0l-2.3-2.3L5.918,9.851c-.19.19-.345.125-.345-.143V6.06a.49.49,0,0,1,.488-.488H9.709c.268,0,.333.155.143.345L8.6,7.168l2.3,2.3a.2.2,0,0,1,0,.276m7.249,7.917a.49.49,0,0,1-.488.488H14.012c-.268,0-.333-.155-.143-.345l1.251-1.251-2.3-2.3a.2.2,0,0,1,0-.276l1.156-1.156a.2.2,0,0,1,.276,0l2.3,2.3L17.8,13.868c.19-.19.345-.125.345.143Zm0-7.951c0,.268-.155.333-.345.143L16.553,8.6l-2.3,2.3a.2.2,0,0,1-.276,0L12.822,9.742a.2.2,0,0,1,0-.276l2.3-2.3L13.869,5.917c-.19-.19-.126-.345.143-.345h3.648a.49.49,0,0,1,.488.488Z" transform="translate(1972.801 18119.305)" fill="#ccc"/>
  </g>
</svg>
