<svg xmlns="http://www.w3.org/2000/svg" xmlns:xlink="http://www.w3.org/1999/xlink" width="40" height="24" viewBox="0 0 40 24">
  <defs>
    <clipPath id="clip-path">
      <rect id="사각형_186" data-name="사각형 186" width="40" height="24" transform="translate(1885 18119)" fill="#942929"/>
    </clipPath>
  </defs>
  <g id="마스크_그룹_55" data-name="마스크 그룹 55" transform="translate(-1885 -18119)" clip-path="url(#clip-path)">
    <path id="패스_428" data-name="패스 428" d="M.481,20.624a3.12,3.12,0,0,1-.216-.406,3.12,3.12,0,0,0,.216.406m1.153,1.081c.058.032.118.061.178.088-.06-.028-.12-.057-.178-.088M.713,8.5a3.133,3.133,0,0,1,1.194-.891A3.133,3.133,0,0,0,.713,8.5M0,10.484A3.111,3.111,0,0,1,.713,8.5,3.111,3.111,0,0,0,0,10.484v8.474a3.118,3.118,0,0,0,.173,1.025A3.118,3.118,0,0,1,0,18.959Zm3.124,11.6h0a3.17,3.17,0,0,1-.319-.016,3.17,3.17,0,0,0,.319.016M1.908,7.606a3.114,3.114,0,0,1,1.216-.245h0a3.114,3.114,0,0,0-1.216.245m.9,14.46a3.111,3.111,0,0,1-.609-.124,3.111,3.111,0,0,0,.609.124M22.453,0H13.978a3.124,3.124,0,0,0-3.124,3.124V6.383H11.6a4.108,4.108,0,0,1,4.019,3.284,7.545,7.545,0,0,0,1.569-.923,8.332,8.332,0,0,1-1.264-1.851.686.686,0,1,1,1.226-.614,6.932,6.932,0,0,0,1.046,1.532,8.263,8.263,0,0,0,.931-1.26,8.545,8.545,0,0,0,.618-1.239H14.992a.686.686,0,1,1,0-1.372h2.537v-.6a.686.686,0,1,1,1.372,0v.6h2.538a.686.686,0,0,1,0,1.372h-.234a9.827,9.827,0,0,1-.877,1.9,9.5,9.5,0,0,1-1.154,1.553,7.5,7.5,0,0,0,1.862,1.108.686.686,0,1,1-.526,1.267,8.861,8.861,0,0,1-2.345-1.428A8.889,8.889,0,0,1,16,10.995a.685.685,0,0,1-.262.053H15.7v3.673h6.753A3.124,3.124,0,0,0,25.576,11.6V3.124A3.124,3.124,0,0,0,22.453,0M6.518,15.034H8.2l-.843-2.391Zm8.2-4.55v8.474q0,.081,0,.161a3.157,3.157,0,0,1-.032.315,3.108,3.108,0,0,1-.585,1.393,3.14,3.14,0,0,1-.883.8q-.129.078-.265.144a3.1,3.1,0,0,1-.879.272,3.14,3.14,0,0,1-.315.032q-.08,0-.161,0H3.124a3.17,3.17,0,0,1-.319-.016,3.066,3.066,0,0,1-.992-.272c-.06-.028-.12-.057-.178-.088s-.088-.049-.131-.075a3.14,3.14,0,0,1-.883-.8c-.049-.066-.1-.134-.139-.2a3.12,3.12,0,0,1-.216-.406Q.214,20.1.173,19.984A3.118,3.118,0,0,1,0,18.959V10.484A3.121,3.121,0,0,1,3.124,7.361H11.6a3.122,3.122,0,0,1,2.844,1.832q.036.08.068.162a3.1,3.1,0,0,1,.2.811,3.169,3.169,0,0,1,.016.319m-4.065,7.384L8.008,10.352a.686.686,0,0,0-1.294,0L4.065,17.869a.686.686,0,1,0,1.294.456l.676-1.919H8.687l.676,1.919a.686.686,0,1,0,1.294-.456" transform="translate(1892.15 18120.918)" fill="#ccc"/>
  </g>
</svg>
